<?xml version="1.0" encoding="utf-8"?>
<!-- Generator: Adobe Illustrator 18.0.0, SVG Export Plug-In . SVG Version: 6.00 Build 0)  -->
<!DOCTYPE svg PUBLIC "-//W3C//DTD SVG 1.1//EN" "http://www.w3.org/Graphics/SVG/1.1/DTD/svg11.dtd">
<svg version="1.1" xmlns="http://www.w3.org/2000/svg" xmlns:xlink="http://www.w3.org/1999/xlink" x="0px" y="0px"
	 viewBox="88.8 61.3 42.5 80" enable-background="new 88.8 61.3 42.5 80" xml:space="preserve">
<g id="图层_1">
	<path fill="#DDDDDD" d="M128.8,141.3c0.8,0,1.3-0.3,1.8-0.8c1-1,1-2.5,0-3.5l-35.8-35.8l35.8-35.8c1-1,1-2.5,0-3.5s-2.5-1-3.5,0
		L89.5,99.5c-1,1-1,2.5,0,3.5l37.5,37.5C127.5,141,128.3,141.3,128.8,141.3z"/>
</g>
<g id="图层_1_x5F_复制" display="none">
	<path display="inline" fill="#DDDDDD" d="M93,140.5l37.5-37.5c1-1,1-2.5,0-3.5L93,62c-1-1-2.5-1-3.5,0c-1,1-1,2.5,0,3.5l35.8,35.8
		L89.5,137c-1,1-1,2.5,0,3.5c0.5,0.5,1,0.8,1.8,0.8C91.8,141.3,92.5,141,93,140.5z"/>
</g>
</svg>
